<svg width="56" height="56" viewBox="0 0 56 56" fill="none" xmlns="http://www.w3.org/2000/svg">
<g id="cart-3-svgrepo-com 1">
<g id="SVGRepo_iconCarrier">
<path id="Vector" fill-rule="evenodd" clip-rule="evenodd" d="M23.3329 5.25C21.7033 5.25 20.2966 6.20461 19.6416 7.58513C18.0467 7.59673 16.8036 7.66995 15.694 8.10362C14.3682 8.62178 13.2151 9.50262 12.3664 10.6454C11.5102 11.7982 11.1083 13.2759 10.5551 15.3098L10.4469 15.7073L9.25053 22.621C8.81763 22.9197 8.44164 23.2733 8.11465 23.6922C6.01271 26.3842 7.01364 30.3879 9.01552 38.3955C10.2888 43.4884 10.9254 46.0348 12.8242 47.5174C14.723 49 17.3479 49 22.5975 49H33.4024C38.6522 49 41.277 49 43.1758 47.5174C45.0745 46.0348 45.7112 43.4884 46.9845 38.3955C48.9863 30.3879 49.9873 26.3842 47.8852 23.6922C47.5581 23.273 47.1817 22.9191 46.7484 22.6203L45.5521 15.7073L45.4438 15.3098C44.8906 13.2759 44.4888 11.7982 43.6327 10.6454C42.7841 9.50262 41.6307 8.62178 40.3051 8.10362C39.1954 7.66995 37.9524 7.59673 36.3574 7.58513C35.7024 6.20461 34.2959 5.25 32.6663 5.25H23.3329ZM42.9747 21.34L42.1317 16.4678C41.4695 14.0419 41.2291 13.2795 40.8227 12.7321C40.3658 12.1168 39.7449 11.6425 39.0309 11.3635C38.518 11.163 37.8983 11.1041 36.3541 11.0884C35.6977 12.4653 34.2931 13.4167 32.6663 13.4167H23.3329C21.706 13.4167 20.3013 12.4653 19.6449 11.0884C18.1006 11.1041 17.4809 11.163 16.9681 11.3635C16.2542 11.6425 15.6333 12.1168 15.1763 12.7321C14.7698 13.2795 14.5295 14.0419 13.8673 16.4678L13.0242 21.3401C15.3532 21 18.4558 21 22.5975 21H33.4024C37.5436 21 40.6458 21 42.9747 21.34ZM18.6667 28.5833C19.6332 28.5833 20.4167 29.3669 20.4167 30.3333V39.6667C20.4167 40.6331 19.6332 41.4167 18.6667 41.4167C17.7003 41.4167 16.9167 40.6331 16.9167 39.6667V30.3333C16.9167 29.3669 17.7003 28.5833 18.6667 28.5833ZM39.0834 30.3333C39.0834 29.3669 38.2999 28.5833 37.3334 28.5833C36.3669 28.5833 35.5834 29.3669 35.5834 30.3333V39.6667C35.5834 40.6331 36.3669 41.4167 37.3334 41.4167C38.2999 41.4167 39.0834 40.6331 39.0834 39.6667V30.3333ZM28.0001 28.5833C28.9665 28.5833 29.7501 29.3669 29.7501 30.3333V39.6667C29.7501 40.6331 28.9665 41.4167 28.0001 41.4167C27.0336 41.4167 26.2501 40.6331 26.2501 39.6667V30.3333C26.2501 29.3669 27.0336 28.5833 28.0001 28.5833Z" fill="white"/>
</g>
</g>
</svg>
