<svg width="43" height="44" viewBox="0 0 43 44" fill="none" xmlns="http://www.w3.org/2000/svg">
<g id="SVGRepo_iconCarrier">
<path id="Vector" fill-rule="evenodd" clip-rule="evenodd" d="M16.3863 0C14.7567 0 13.3501 0.954614 12.6951 2.33513C11.1002 2.34673 9.85709 2.41995 8.74748 2.85362C7.4217 3.37178 6.26855 4.25262 5.41987 5.39537C4.5637 6.54824 4.16178 8.02592 3.60862 10.0598L3.50037 10.4573L2.304 17.371C1.8711 17.6697 1.49511 18.0233 1.16811 18.4422C-0.933825 21.1342 0.0671053 25.1379 2.06899 33.1455C3.34222 38.2384 3.97884 40.7848 5.87767 42.2674C7.77648 43.75 10.4013 43.75 15.651 43.75H26.4559C31.7057 43.75 34.3304 43.75 36.2293 42.2674C38.1279 40.7848 38.7647 38.2384 40.038 33.1455C42.0398 25.1379 43.0408 21.1342 40.9387 18.4422C40.6115 18.023 40.2352 17.6691 39.8019 17.3703L38.6056 10.4573L38.4973 10.0598C37.9441 8.02592 37.5423 6.54824 36.6862 5.39537C35.8375 4.25262 34.6842 3.37178 33.3586 2.85362C32.2489 2.41995 31.0059 2.34673 29.4108 2.33513C28.7559 0.954614 27.3493 0 25.7197 0H16.3863ZM36.0282 16.09L35.1851 11.2178C34.5229 8.79186 34.2826 8.02949 33.8761 7.48214C33.4193 6.86679 32.7984 6.39249 32.0844 6.1135C31.5715 5.91304 30.9518 5.85405 29.4076 5.83844C28.7512 7.21525 27.3465 8.16667 25.7197 8.16667H16.3863C14.7594 8.16667 13.3548 7.21525 12.6984 5.83844C11.1541 5.85405 10.5344 5.91304 10.0215 6.1135C9.30766 6.39249 8.68674 6.86679 8.22976 7.48211C7.82327 8.02947 7.58294 8.79186 6.92078 11.2178L6.07765 16.0901C8.4067 15.75 11.5093 15.75 15.651 15.75H26.4559C30.5971 15.75 33.6993 15.75 36.0282 16.09ZM11.7202 23.3333C12.6867 23.3333 13.4702 24.1169 13.4702 25.0833V34.4167C13.4702 35.3831 12.6867 36.1667 11.7202 36.1667C10.7537 36.1667 9.97021 35.3831 9.97021 34.4167V25.0833C9.97021 24.1169 10.7537 23.3333 11.7202 23.3333ZM32.1369 25.0833C32.1369 24.1169 31.3533 23.3333 30.3869 23.3333C29.4204 23.3333 28.6369 24.1169 28.6369 25.0833V34.4167C28.6369 35.3831 29.4204 36.1667 30.3869 36.1667C31.3533 36.1667 32.1369 35.3831 32.1369 34.4167V25.0833ZM21.0535 23.3333C22.02 23.3333 22.8035 24.1169 22.8035 25.0833V34.4167C22.8035 35.3831 22.02 36.1667 21.0535 36.1667C20.0871 36.1667 19.3035 35.3831 19.3035 34.4167V25.0833C19.3035 24.1169 20.0871 23.3333 21.0535 23.3333Z" fill="#39A3DF"/>
</g>
</svg>
