<svg width="232" height="232" viewBox="0 0 232 232" fill="none" xmlns="http://www.w3.org/2000/svg">
<path fill-rule="evenodd" clip-rule="evenodd" d="M231.667 115.833C231.667 179.806 179.806 231.667 115.833 231.667C51.8603 231.667 0 179.806 0 115.833C0 51.8603 51.8603 0 115.833 0C179.806 0 231.667 51.8603 231.667 115.833ZM162.518 80.732C165.91 84.1246 165.91 89.6253 162.518 93.0176L104.601 150.934C101.208 154.327 95.7084 154.327 92.3153 150.934L69.1487 127.768C65.756 124.375 65.756 118.875 69.1487 115.482C72.5413 112.09 78.042 112.09 81.4346 115.482L98.4583 132.505L124.345 106.619L150.232 80.732C153.625 77.3394 159.125 77.3394 162.518 80.732Z" fill="#19B400"/>
</svg>
